# xmcd
#
# Track frame offsets:
#	150
#	23553
#	44261
#	68503
#	92862
#	118538
#	139520
#	159769
#	181137
#	183696
#	209235
#	227300
#	249070
#	270734
#	290001
#	310698
#	323754
#	341897
#
# Disc length: 4785 seconds
#
# Revision: 0
# Processed by: cddbd v1.5.2PL0 Copyright (c) Steve Scherf et al.
# Submitted via: EZCDAudioConverter 1.3.4.1
#
DISCID=f512af12
DTITLE=Dayton - Hot Fun - Feel The Music
DYEAR=2013
DGENRE=R&B
TTITLE0=Hot Fun In The Summertime
TTITLE1=We Can't Miss
TTITLE2=Patiently
TTITLE3=Krackity-Krack
TTITLE4=Meet The Man
TTITLE5=Gunch
TTITLE6=Never Repay Your Love
TTITLE7=Movin' Up
TTITLE8=Movin' Up (Reprise)
TTITLE9=The Sound Of Music
TTITLE10=It Must Be Love
TTITLE11=Out Tonight
TTITLE12=So What
TTITLE13=Love You Anyway
TTITLE14=Caught In The Middle
TTITLE15=Eyes
TTITLE16=Promise Me
TTITLE17=Lookin' Up
EXTD=
EXTT0=
EXTT1=
EXTT2=
EXTT3=
EXTT4=
EXTT5=
EXTT6=
EXTT7=
EXTT8=
EXTT9=
EXTT10=
EXTT11=
EXTT12=
EXTT13=
EXTT14=
EXTT15=
EXTT16=
EXTT17=
PLAYORDER=
